<svg xmlns="http://www.w3.org/2000/svg" viewBox="0 0 152.34 272.43">
  <defs>
    <style>
      .a{fill:#1f55fa;}
      .b{fill:#053be1;}
      .c{fill:#517bfb;}
      .d{fill:#517bfb;}
      .e{fill:#83a1fc;}
      .f{fill:#053be1;}
      .g{fill:#83a1fc;}
    </style>
  </defs>
  <path class="a" d="M85.24,5.45c-.41-3.27.31-3.46,1.6-.43l63.8,150.43c1.29,3-.35,5.44-3.65,5.35l-36.44-1.07a7.25,7.25,0,0,1-6.74-6.13Z"/>
  <path class="b" d="M117.71,252.83l33.18-94.19c.43-1.44.88-1.19-.23-3.16l-41.93,2.57c-1.88.1-11.14,1-10.93,2.68l14.81,93.2C113,257.05,116.63,255.81,117.71,252.83Z"/>
  <path class="c" d="M64.39,267.22c-.62,1.53.17,2.42,1.76,2L115,255.68a3.72,3.72,0,0,0,2.61-3.79l-8.89-93.84a0,0,0,0,0,0,0Z"/>
  <path class="d" d="M1.81,178.87,83.34,3.4a1.49,1.49,0,0,1,2.83.74L65.39,267.79c.43,1.42-.38,2-1.33.78L2,180.35A1.49,1.49,0,0,1,1.81,178.87Z"/>
  <path class="e" d="M85.6,2.88,96,83.6l15.74-20.39L86.24,3.58C86.14,3.34,85.57,2.62,85.6,2.88Z"/>
  <path class="f" d="M83.3,4.09a1.86,1.86,0,0,1,.8-1.38,1.37,1.37,0,0,1,.76-.17,1.42,1.42,0,0,1,1.33,1.25L108.73,158a.11.11,0,0,1,0,0l-42.66,108-1.23,3.1"/>
  <path class="g" d="M73.19,149.41l3.33-48.32a.27.27,0,0,0-.3-.3l-41.11,6.83Z"/>
  <polygon class="c" points="64.83 269.2 65.53 267.43 65.96 269.25 65.21 269.22 65.14 269.24 65.06 269.25 64.95 269.25 64.83 269.2"/>
</svg>
